<svg width="1600" height="540" viewBox="0 0 1600 540" fill="none" xmlns="http://www.w3.org/2000/svg" role="img" aria-labelledby="title desc">
  <title id="title">Jordan M hero</title>
  <desc id="desc">A custom GitHub profile hero with a system-console aesthetic.</desc>
  <defs>
    <linearGradient id="bg" x1="0" y1="0" x2="1600" y2="540" gradientUnits="userSpaceOnUse">
      <stop stop-color="#050B15"/>
      <stop offset="0.55" stop-color="#08111F"/>
      <stop offset="1" stop-color="#0A1625"/>
    </linearGradient>
    <linearGradient id="accent" x1="1110" y1="82" x2="1455" y2="286" gradientUnits="userSpaceOnUse">
      <stop stop-color="#22D3EE"/>
      <stop offset="0.55" stop-color="#3B82F6"/>
      <stop offset="1" stop-color="#14B8A6"/>
    </linearGradient>
    <linearGradient id="accent2" x1="1032" y1="322" x2="1450" y2="470" gradientUnits="userSpaceOnUse">
      <stop stop-color="#10B981"/>
      <stop offset="1" stop-color="#60A5FA"/>
    </linearGradient>
    <pattern id="grid" width="30" height="30" patternUnits="userSpaceOnUse">
      <path d="M30 0H0V30" stroke="#18324D" stroke-opacity="0.32"/>
    </pattern>
  </defs>

  <rect width="1600" height="540" rx="26" fill="url(#bg)"/>
  <rect width="1600" height="540" rx="26" fill="url(#grid)"/>

  <path d="M56 76H1544" stroke="#173653"/>
  <path d="M56 470H1544" stroke="#173653"/>
  <path d="M84 48V492" stroke="#173653"/>
  <path d="M1516 48V492" stroke="#173653"/>

  <rect x="96" y="84" width="270" height="32" rx="16" fill="#091727" stroke="#22537C"/>
  <circle cx="120" cy="100" r="5" fill="#10B981"/>
  <text x="138" y="105" fill="#9FC6E3" font-size="13" font-family="Segoe UI, Arial, sans-serif" letter-spacing="0.16em">SYSTEM PROFILE / ACTIVE</text>

  <text x="110" y="170" fill="#7DD3FC" font-size="14" font-family="Consolas, Menlo, monospace" letter-spacing="0.22em">JORDAN_M / BUILDING APPLIED SYSTEMS</text>
  <text x="110" y="254" fill="#F8FAFC" font-size="84" font-family="Segoe UI, Arial, sans-serif" font-weight="700">Jordan M</text>
  <text x="112" y="310" fill="#B6E8FF" font-size="22" font-family="Segoe UI, Arial, sans-serif" letter-spacing="0.12em">AI SYSTEMS / INFRASTRUCTURE / CYBERSECURITY / AUTOMATION</text>
  <text x="112" y="374" fill="#8FA8BF" font-size="23" font-family="Segoe UI, Arial, sans-serif">Production-minded builder working where software meets operations.</text>

  <rect x="112" y="412" width="146" height="34" rx="17" fill="#0A1829" stroke="#255A83"/>
  <text x="137" y="434" fill="#E3EFFB" font-size="13" font-family="Segoe UI, Arial, sans-serif" letter-spacing="0.08em">STATUS / ONLINE</text>
  <rect x="272" y="412" width="150" height="34" rx="17" fill="#0A1829" stroke="#255A83"/>
  <text x="299" y="434" fill="#E3EFFB" font-size="13" font-family="Segoe UI, Arial, sans-serif" letter-spacing="0.08em">MODE / BUILD</text>

  <rect x="1040" y="86" width="414" height="170" rx="22" fill="#081320" stroke="#22537C"/>
  <text x="1068" y="122" fill="#96B7D6" font-size="13" font-family="Segoe UI, Arial, sans-serif" letter-spacing="0.16em">SIGNAL PANEL</text>
  <rect x="1068" y="146" width="358" height="16" rx="8" fill="#0D2235"/>
  <rect x="1068" y="182" width="248" height="14" rx="7" fill="url(#accent)"/>
  <rect x="1068" y="212" width="302" height="14" rx="7" fill="#173653"/>
  <rect x="1068" y="242" width="182" height="14" rx="7" fill="#173653"/>

  <rect x="998" y="300" width="456" height="148" rx="22" fill="#081320" stroke="#1E6070"/>
  <text x="1026" y="336" fill="#96B7D6" font-size="13" font-family="Segoe UI, Arial, sans-serif" letter-spacing="0.16em">CURRENT SIGNALS</text>
  <path d="M1028 366H1298" stroke="url(#accent2)" stroke-width="2"/>
  <circle cx="1320" cy="366" r="6" fill="#22D3EE"/>
  <path d="M1028 398H1298" stroke="url(#accent2)" stroke-width="2"/>
  <circle cx="1320" cy="398" r="6" fill="#3B82F6"/>
  <path d="M1028 430H1298" stroke="url(#accent2)" stroke-width="2"/>
  <circle cx="1320" cy="430" r="6" fill="#10B981"/>

  <rect x="1490" y="88" width="34" height="356" rx="17" fill="#091727" stroke="#22537C"/>
  <rect x="1500" y="122" width="14" height="90" rx="7" fill="url(#accent)"/>
  <rect x="1500" y="228" width="14" height="44" rx="7" fill="#8B5CF6"/>
  <rect x="1500" y="288" width="14" height="124" rx="7" fill="#10B981"/>
</svg>
